<svg xmlns="http://www.w3.org/2000/svg" viewBox="0 0 392.87 327.38"><defs><style>.cls-1{fill:#51459e;}</style></defs><g id="Layer_2" data-name="Layer 2"><g id="Layer_1-2" data-name="Layer 1"><path class="cls-1" d="M392.87,167.51c-1.82,6.66-6.27,11.46-11,16.21q-67.91,67.72-135.68,135.59c-8.35,8.35-18.9,10.83-27.32,4.54a109.61,109.61,0,0,1-20.52-20.42c-5.53-7.1-4-17.18,1.88-24.15,1.15-1.37,2.41-2.65,3.67-3.91q38.85-38.75,77.7-77.47c.95-.94,1.83-2,3.29-3.52H24.92C8.65,194.37,0,185.8,0,169.61v-13C0,141.46,8.42,133,23.46,133q65.22,0,130.43,0H284.07c-1.45-1.52-2.34-2.49-3.27-3.42q-39-39.1-78-78.21c-8.19-8.22-10.63-19.08-4.37-27.41A109.56,109.56,0,0,1,218.86,3.46c7.25-5.61,17.43-4,24.51,2,1.37,1.15,2.64,2.41,3.9,3.68q67.16,67.13,134.32,134.24c4.84,4.83,9.45,9.67,11.28,16.48Z"/></g></g></svg>