<svg xmlns="http://www.w3.org/2000/svg" viewBox="0 0 346.54 396.15"><defs><style>.cls-1{fill:#51459e;}</style></defs><g id="Layer_2" data-name="Layer 2"><g id="Layer_1-2" data-name="Layer 1"><path class="cls-1" d="M0,396.15c1.4-9.15,2.72-18.31,4.21-27.44,2.92-17.79,6-35.54,8.9-53.33,4.82-29.63,21.14-49.65,49.65-59.4,16.07-5.5,32.17-10.89,48.34-16,3.67-1.17,5.52-2.71,4.77-6.67a13.06,13.06,0,0,1,.16-2.95h12.09a5.94,5.94,0,0,1,.32,1.72c-.93,9.62,2.25,18.57,4.63,27.62.27,1,1.86,2.09,3,2.37,4.1,1,8.26,1.77,12.43,2.36a4.55,4.55,0,0,0,3.49-1.07c3.54-3.92,6.74-8.14,10.3-12,1-1.07,2.75-1.39,4.17-2a1,1,0,0,1,.38,0c5.37.18,11.49-1.18,15.89,1s7.33,7.73,10.6,12c1.76,2.33,3.3,2.8,6.11,1.82a31.43,31.43,0,0,1,9.79-1.75c3.13-.05,4.21-1.32,4.72-4.11,1.7-9.16,3.55-18.29,5.43-27.91h10.64c.18.28.46.52.42.69-1.22,6.38,2.47,8.23,7.85,9.94,17.65,5.61,35.43,11,52.55,18,22.86,9.29,36.82,27,41.41,51.19,5.3,27.94,9.53,56.08,14.22,84.14a12.32,12.32,0,0,1,0,1.92Zm117.67-144.7a12.09,12.09,0,0,0-1.66.19c-17.09,5.69-34.21,11.29-51.25,17.13a57.45,57.45,0,0,0-30,23.24c-8.26,12.47-9.27,26.92-11.61,41.3l40.12,4.42c.53-4.32,1-8.22,1.53-12.42l12.56,1.32c-1.9,19.11-3.74,37.74-5.59,56.38H274.7c-1.88-19-3.73-37.62-5.6-56.48l12.56-1.19c.53,4.25,1,8.14,1.54,12.41l40.16-4.49c-.88-5.48-1.73-10.42-2.46-15.37-3-20.11-12.53-36-30.86-45.37-7.49-3.84-15.79-6.17-23.81-8.93-12.25-4.22-24.59-8.21-37.29-12.44-1,3.79-1.78,7.28-2.84,10.67-.77,2.47-.24,3.79,2.13,5.2a31.14,31.14,0,0,1,14,35.39,32.3,32.3,0,0,1-40.82,22c-3.9-1.16-7.7-2.68-12-4.2,1.71,8.68,2.93,17,8.25,24.09,6.64,8.81,15.68,12.95,26.47,13.52V370.4c-19.9,0-37.69-12.84-43.33-31.49-2.2-7.25-3.56-14.75-5.43-22.1-.27-1.08-1.25-2-1.9-3-.76,1-1.94,1.91-2.22,3-1.28,5.11-2.3,10.29-3.44,15.44-3,13.43-9.72,24.29-21.66,31.53a44.51,44.51,0,0,1-23.59,6.55V357.94c24.58-2,32.87-19.79,34.19-37.5-4.14,1.46-8.19,3.14-12.38,4.31-23.24,6.47-45.13-13.43-40.62-36.93,1.77-9.23,7-16.13,14.91-21.17,1-.64,2.1-2.38,1.93-3.4C119.86,259.35,118.7,255.53,117.67,251.45Zm40.71,54.76c-5.62-8.28-5.54-16.25-.17-24.36-6.42-2.34-12.19-5-18.25-6.5-8.18-2-15.32.61-20.5,7.45a18.83,18.83,0,0,0-.82,21.07c4.61,7.24,11.54,10.51,19.83,8.83C145.06,311.37,151.36,308.56,158.38,306.21ZM188.2,306c6.18,2.32,11.78,5,17.68,6.5,8.24,2.05,15.7-.07,21-7.14,4.8-6.48,5.24-13.62,1.3-20.67-4.13-7.39-11-10.94-19.09-9.58-7,1.18-13.75,4.27-21,6.64C193.6,290.09,193.68,297.7,188.2,306ZM18.94,358.44l41.94,5.23c.43-4.69.81-8.74,1.22-13.17L21,345.93C20.3,350.16,19.67,354,18.94,358.44Zm265.41-7.95c.46,4.62.88,8.79,1.32,13.2l41.88-5.28c-.74-4.44-1.39-8.32-2.08-12.48ZM59.61,376.4l-42.8-5.33-2,12h44C59,380.88,59.3,378.87,59.61,376.4Zm272.07,6.74c-.54-3.38-1.13-6.28-1.43-9.21-.22-2.16-1.12-2.88-3.25-2.57-4.2.61-8.43,1.06-12.64,1.59l-27.46,3.48c.3,2.39.57,4.49.84,6.71ZM183,269.91c-8.23-13.16-14.63-8.42-19.14.21C170.12,274.71,176.47,274.7,183,269.91Zm-3.48,23.93a6.24,6.24,0,0,0-12.47.24,6.24,6.24,0,1,0,12.47-.24Z"/><path class="cls-1" d="M173.36,236.23c-5.67,0-11.34.12-17,0-8.13-.2-15-3.6-20.67-9.2Q122.18,213.74,109,200.12a63.12,63.12,0,0,1-14.74-24.65c-.76-2.32-2-3.32-4.49-3.91-11.64-2.75-19.65-9.8-23.42-21.27-.74-2.22-1.67-3.17-4.13-3.52-10.14-1.45-16.65-9.29-16.63-19.55A127.69,127.69,0,0,1,128.92,8.29c23.15-8.48,46.9-11.44,70.86-4.17C233.18,14.25,255,36.46,265.3,69.83c4.22,13.64,3.92,27.73,3.75,41.78a7.29,7.29,0,0,0,2.56,6c8.93,8.53,12.15,19,9,31-3.21,12.25-11.41,19.91-23.71,22.87-2.6.62-3.94,1.66-4.75,4.16a62.39,62.39,0,0,1-14.53,24.33q-13.3,13.76-26.95,27.19c-6.77,6.71-15.17,9.43-24.57,9.4-4.25,0-8.51,0-12.76,0Zm83.21-127.82c-.45-8.4-.2-16.68-1.45-24.73C250.8,55.84,235.76,35.29,211,22.15c-20.89-11.06-43-11.28-65.39-5.67-51,12.81-86.94,58.37-87.26,110.29,0,4.66,2.32,7.46,7,7.32a23.61,23.61,0,0,0,8.9-1.91q56.63-25.54,113.13-51.36c7.11-3.23,14.23-6.43,21.64-9.78l5.24,11.59L159,107.74l.19.67Zm-12.13,13.43c-2-.18-2.63-.28-3.26-.28q-55.29,0-110.59,0a9.45,9.45,0,0,0-3.71.78c-7.17,3.19-14.27,6.55-21.47,9.67-2,.87-2.58,2-2.52,4.11.14,5.41,0,10.83.07,16.24.27,15.17,5.22,28.56,15.81,39.56,8.49,8.83,17.22,17.42,25.91,26A19.42,19.42,0,0,0,159,223.69c9.28,0,18.56-.09,27.84,0a21,21,0,0,0,15.92-6.61c7.79-7.88,15.66-15.69,23.49-23.54,7.53-7.55,13.81-16.27,15.16-26.81C243.29,152,243.49,137.06,244.44,121.84Zm11.91,36.35c7.67-2.26,13-9.92,12.7-18.16-.24-7.49-6-15.68-12.7-16.66ZM90.19,139,78,144.55c1.76,7,5.7,11.44,12.2,13.88Z"/></g></g></svg>