<svg xmlns="http://www.w3.org/2000/svg" viewBox="0 0 359.38 359.36"><defs><style>.cls-1{fill:#de350b;}</style></defs><g id="Layer_2" data-name="Layer 2"><g id="Layer_1-2" data-name="Layer 1"><path class="cls-1" d="M49.42,95.84q34.06,0,68.13,0a22.86,22.86,0,0,1,4.83.3,11.94,11.94,0,0,1-2.07,23.6c-2.74.14-5.49,0-8.24,0q-43,0-86.11,0c-9.41,0-14-4.59-14-14q0-46.6,0-93.21C12,5.89,16.33.84,22.5.09A12,12,0,0,1,35.6,9.38a20.71,20.71,0,0,1,.31,4.46q0,26.78,0,53.53v4.42L39,68c33-40,75.06-63.2,126.85-67.31,85.83-6.8,163.42,47.81,186.88,130.76a176.56,176.56,0,0,1,6.62,46.88c.07,7.7-4.78,13.14-11.69,13.29s-12.11-5.23-12.26-13.11c-1.31-64.43-39.27-119.94-98.12-143.47a155.28,155.28,0,0,0-171,38.24C59.93,80.1,54.4,87.62,48.51,94.8Z"/><path class="cls-1" d="M310.81,263.54c-23.59,0-46.3,0-69,0a22.27,22.27,0,0,1-4.84-.32,11.94,11.94,0,0,1,2.86-23.6c19.22-.06,38.44,0,57.66,0q18.35,0,36.69,0c8.37,0,13.23,4.87,13.23,13.26q0,46.61,0,93.21c0,7.9-5,13.35-12.05,13.3s-11.89-5.49-11.9-13.47c0-19.09,0-38.17,0-58-1.1,1.18-1.82,1.87-2.44,2.63-31.83,39.3-72.75,63.09-123.1,67.71-67.7,6.2-122.58-19-163.51-73.2C11.32,254.43.46,219.28,0,181c-.09-7.7,4.78-13.11,11.71-13.24S23.76,173,24,180.86c.1,3.62.21,7.24.56,10.83C29.72,246.11,56,287.43,103,315c55.34,32.44,126.61,25.76,176-15.56A158.83,158.83,0,0,0,307.8,268.1C308.7,266.8,309.54,265.46,310.81,263.54Z"/></g></g></svg>