<svg xmlns="http://www.w3.org/2000/svg" viewBox="0 0 346.77 395.77"><defs><style>.cls-1{fill:#51459e;}</style></defs><g id="Layer_2" data-name="Layer 2"><g id="Layer_1-2" data-name="Layer 1"><path class="cls-1" d="M185.11,0c4,.93,8,1.62,11.92,2.82Q228,12.41,241,42.14a6.51,6.51,0,0,0,3.53,3.4c15.46,4.38,24.63,16.11,24.78,32.31.1,11.34-.08,22.68.12,34a8.33,8.33,0,0,0,2.29,5.16c8.72,8.72,12.25,19,9.23,31-3.17,12.62-11.55,20.37-24.16,23.34-2.33.55-3.53,1.49-4.23,3.7a63.89,63.89,0,0,1-15.19,25.26q-13,13.46-26.41,26.6a30.85,30.85,0,0,1-21.86,9.25c-10.81.11-21.63,0-32.45-.15-8.12-.14-15-3.56-20.68-9.16q-13.77-13.54-27.19-27.46a61.46,61.46,0,0,1-14.12-23.68,5.91,5.91,0,0,0-4.9-4.49C77.32,168.27,69.15,160.43,66,148c-3-11.83.31-22.2,9.14-30.6a7.24,7.24,0,0,0,2.52-6c-.17-14-.46-28.13,3.76-41.76C91.8,36.31,113.64,14.31,147,3.94,153.05,2,159.49,1.28,165.78,0ZM103.48,121.39c0,12.3-.48,24,.12,35.7.71,13.75,6.46,25.59,16.09,35.44,8.2,8.38,16.53,16.63,24.84,24.9a20.17,20.17,0,0,0,14.94,6.11c9.15-.06,18.3-.12,27.44,0a21.45,21.45,0,0,0,16.25-6.75c7.69-7.79,15.47-15.5,23.2-23.25a58.31,58.31,0,0,0,13.77-21.2c6.21-16.76,2.66-34.13,3.85-51.39-18-2.83-31.06-12.2-39.74-27.47a4.37,4.37,0,0,0-1,.29,11.07,11.07,0,0,0-1.25.91c-22.95,19-49.5,27.26-79,26.7C116.53,121.28,110.11,121.39,103.48,121.39ZM90.91,108.47c12.9,0,25.52.11,38.13,0,27.22-.29,50.72-9.92,70.42-28.68,2.31-2.2,4.15-4.88,7-8.34,10.64,22,23.08,39.53,50,37.09,0-10.21.09-20.5,0-30.78-.14-12.25-7.73-20-20-20.23-2.91-.06-4.13-.8-5-3.72C226.27,36.51,215.57,24,198.8,17c-12.2-5.11-24.89-5-37.61-3.14C119.25,20,85.39,57.82,90.91,108.47ZM90.55,158V123.09c-7.44,2-12.79,9.36-12.86,17.24C77.62,148.48,83.07,156.06,90.55,158Zm166,.16a18.75,18.75,0,0,0,12.72-19.29c-.78-7.78-6.32-14.68-12.72-15.6Z"/><path class="cls-1" d="M116.35,230.07h12.29c-.83,17.27,6.5,32.75,9.29,49.14l1.25.89a17.76,17.76,0,0,1,1.64-3c7-8.45,14-16.82,21-25.29,1.58-1.93,3.17-3,5.83-2.84,5,.28,10.7-1.28,14.86.65s6.78,7.14,10,11c4.57,5.41,9.07,10.89,13.62,16.32.71.85,1.5,1.63,2.84,3.07,3-17.09,10.16-32.55,9.47-49.88H230.3c.17.23.46.46.43.63-1.15,6.3,2.35,8.28,7.81,10,16.69,5.2,33.36,10.59,49.72,16.77,24.44,9.22,39.47,27.2,44.35,52.74,5.28,27.68,9.46,55.57,14.11,83.38a15,15,0,0,1,0,2.14H0c1.14-7,2.24-13.78,3.37-20.58,3.55-21.2,6.8-42.46,10.75-63.58,5.29-28.18,22.06-46.67,49.11-55.87,16.07-5.47,32.17-10.87,48.34-16,3.5-1.13,5.22-2.67,4.57-6.42A14.18,14.18,0,0,1,116.35,230.07Zm1.51,20.81c-18.8,6.35-37.14,12-55.06,18.75-19.21,7.22-31.24,21.43-35.49,41.57-2.79,13.21-4.69,26.61-6.94,39.94-1.78,10.5-3.5,21-5.3,31.81H59.16c2-19.37,3.89-38.49,5.85-57.83l12.65,1.33c-1.89,19-3.74,37.66-5.6,56.42h70.4c3.82-26.65,7.61-53,11.35-79.4a4,4,0,0,0-.35-2.55c-2.17-3.45-4.49-6.81-7-10.6L132.07,307.5C127.25,288.29,122.62,269.86,117.86,250.88Zm170,131.91H332c-3.91-23.5-7.37-46.69-11.73-69.7-4.24-22.34-17.69-37.32-39.17-44.79-15.32-5.33-30.75-10.3-46.13-15.43-1.79-.6-3.6-1.16-5.8-1.86-4.72,18.84-9.36,37.32-14.16,56.47l-14.4-17.18c-2.09,3.12-3.68,5.78-5.55,8.22a8.17,8.17,0,0,0-1.56,6.78c2.29,15.28,4.34,30.6,6.52,45.9,1.5,10.54,3.07,21.08,4.62,31.67H275c-1.89-19-3.74-37.61-5.62-56.5l12.67-1.2C284,344.55,285.92,363.6,287.86,382.79Zm-96.65.13a26.26,26.26,0,0,0,0-3.34c-3.69-25.86-7.46-51.7-11-77.57a10,10,0,0,1,1.32-6c3.26-5.38,6.9-10.52,10.54-16-4.75-5.7-9.1-11.67-14.33-16.73-1.51-1.47-6.72-1.6-8.16-.2-5.32,5.15-9.77,11.19-14.55,16.92,3.76,5.64,7.4,10.94,10.82,16.37a7.48,7.48,0,0,1,1.25,4.57c-2.82,20.39-5.81,40.76-8.74,61.13-1,6.84-1.89,13.69-2.87,20.83Z"/></g></g></svg>