<svg xmlns="http://www.w3.org/2000/svg" viewBox="0 0 367.06 287.45"><defs><style>.cls-1{fill:#51459e;}.cls-2{opacity:0.3;}</style></defs><g id="Layer_2" data-name="Layer 2"><g id="Layer_1-2" data-name="Layer 1"><path class="cls-1" d="M319.18,95.72l31,.07c12.12,0,19.42,9.72,16,21.47q-15.92,54.83-31.9,109.65c-3.85,13.21-7.93,26.36-11.54,39.64-3.39,12.51-15.14,20.93-27.92,20.9-86.13-.23-172.27-.12-258.4-.12-1.37,0-2.74-.09-4.11-.13,11.53-3.11,18.95-10.26,21.95-21.95,1.19-4.68,2.78-9.27,4.12-13.92q9.8-33.78,19.56-67.56c6.26-21.57,12.82-43.05,18.73-64.71,4.17-15.31,15-23.54,30.27-23.35,22.68.29,45.37.09,68.05.08Z"/><g class="cls-2"><path class="cls-1" d="M319.18,95.72,195,95.79c-22.68,0-45.37.21-68-.08-15.26-.19-26.1,8-30.27,23.35C90.8,140.72,84.24,162.2,78,183.77q-9.8,33.78-19.56,67.56c-1.34,4.65-2.93,9.24-4.12,13.92-3,11.69-10.42,18.84-21.95,21.95-15.44.82-26.49-5.74-30.89-18.26A28.43,28.43,0,0,1,0,259.4Q0,142,0,24.56C0,10.19,10.22.06,24.53,0Q69.22,0,113.91,0a31.74,31.74,0,0,1,25.71,12.25c4.64,5.7,9.37,11.34,13.91,17.12,5.62,7.18,12.75,10.55,22,10.52,39.39-.17,78.79-.09,118.18-.06,12.64,0,21.95,7,24.85,18.53a29.33,29.33,0,0,1,.56,7.05C319.14,75.53,319.15,85.62,319.18,95.72Z"/></g></g></g></svg>